<svg width="32" height="32" viewBox="0 0 32 32" fill="none" xmlns="http://www.w3.org/2000/svg">
<path d="M0.5 16C0.5 7.43959 7.43959 0.5 16 0.5C24.5604 0.5 31.5 7.43959 31.5 16C31.5 24.5604 24.5604 31.5 16 31.5C7.43959 31.5 0.5 24.5604 0.5 16Z" stroke="#4B4B4B"/>
<path fill-rule="evenodd" clip-rule="evenodd" d="M19 16C19 17.6569 17.6569 19 16 19C14.3431 19 13 17.6569 13 16C13 14.3431 14.3431 13 16 13C17.6569 13 19 14.3431 19 16ZM18 16C18 17.1046 17.1046 18 16 18C14.8954 18 14 17.1046 14 16C14 14.8954 14.8954 14 16 14C17.1046 14 18 14.8954 18 16Z" fill="#969696"/>
<path fill-rule="evenodd" clip-rule="evenodd" d="M22.3017 21.384L23.9466 18.616C24.0453 18.44 24.0042 18.224 23.8479 18.104L22.1126 16.784C22.1455 16.528 22.1701 16.272 22.1701 16C22.1701 15.728 22.1455 15.472 22.1126 15.216L23.8479 13.896C24.0042 13.776 24.0453 13.56 23.9466 13.384L22.3017 10.616C22.203 10.44 21.981 10.376 21.8 10.44L19.7522 11.24C19.3245 10.92 18.8639 10.656 18.3622 10.456L18.0497 8.336C18.025 8.144 17.8523 8 17.6467 8H14.3569C14.1513 8 13.9786 8.144 13.9539 8.336L13.6414 10.456C13.1397 10.656 12.6791 10.928 12.2515 11.24L10.2036 10.44C10.0144 10.368 9.8006 10.44 9.70191 10.616L8.05702 13.384C7.9501 13.56 7.99945 13.776 8.15571 13.896L9.89107 15.216C9.85817 15.472 9.8335 15.736 9.8335 16C9.8335 16.264 9.85817 16.528 9.89107 16.784L8.15571 18.104C7.99945 18.224 7.95833 18.44 8.05702 18.616L9.70191 21.384C9.8006 21.56 10.0227 21.624 10.2036 21.56L12.2515 20.76C12.6791 21.08 13.1397 21.344 13.6414 21.544L13.9539 23.664C13.9786 23.856 14.1513 24 14.3569 24H17.6467C17.8523 24 18.025 23.856 18.0497 23.664L18.3622 21.544C18.8639 21.344 19.3245 21.072 19.7522 20.76L21.8 21.56C21.9892 21.632 22.203 21.56 22.3017 21.384ZM21.1207 16.6565L21.047 17.2299L22.8101 18.571L21.696 20.4458L19.6055 19.6291L19.1628 19.9521C18.787 20.2263 18.3996 20.4526 17.9919 20.6151L17.4569 20.8284L17.1368 23H14.8669L14.5467 20.8284L14.0117 20.6151C13.597 20.4498 13.2128 20.2304 12.8506 19.9593L12.4054 19.6263L10.3076 20.4458L9.19353 18.571L10.9566 17.2299L10.8829 16.6565C10.8527 16.4216 10.8335 16.2043 10.8335 16C10.8335 15.7957 10.8527 15.5784 10.8829 15.3435L10.9566 14.7701L9.19353 13.429L10.3076 11.5542L12.3981 12.3709L12.8408 12.0479C13.2166 11.7737 13.6041 11.5474 14.0117 11.3849L14.5467 11.1716L14.8669 9H17.1368L17.4569 11.1716L17.9919 11.3849C18.4066 11.5502 18.7908 11.7696 19.1531 12.0407L19.5982 12.3737L21.696 11.5542L22.8101 13.429L21.047 14.7701L21.1207 15.3435C21.151 15.5794 21.1701 15.7883 21.1701 16C21.1701 16.2117 21.151 16.4206 21.1207 16.6565Z" fill="#969696"/>
</svg>
