<svg width="56" height="32" viewBox="0 0 56 32" fill="none" xmlns="http://www.w3.org/2000/svg">
<path d="M0.5 16C0.5 7.43959 7.43959 0.5 16 0.5H40C48.5604 0.5 55.5 7.43959 55.5 16C55.5 24.5604 48.5604 31.5 40 31.5H16C7.43959 31.5 0.5 24.5604 0.5 16Z" stroke="#4B4B4B"/>
<path fill-rule="evenodd" clip-rule="evenodd" d="M23 16C23 17.6569 21.6569 19 20 19C18.3431 19 17 17.6569 17 16C17 14.3431 18.3431 13 20 13C21.6569 13 23 14.3431 23 16ZM22 16C22 17.1046 21.1046 18 20 18C18.8954 18 18 17.1046 18 16C18 14.8954 18.8954 14 20 14C21.1046 14 22 14.8954 22 16Z" fill="#969696"/>
<path fill-rule="evenodd" clip-rule="evenodd" d="M26.3017 21.384L27.9466 18.616C28.0453 18.44 28.0042 18.224 27.8479 18.104L26.1126 16.784C26.1455 16.528 26.1701 16.272 26.1701 16C26.1701 15.728 26.1455 15.472 26.1126 15.216L27.8479 13.896C28.0042 13.776 28.0453 13.56 27.9466 13.384L26.3017 10.616C26.203 10.44 25.981 10.376 25.8 10.44L23.7522 11.24C23.3245 10.92 22.8639 10.656 22.3622 10.456L22.0497 8.336C22.025 8.144 21.8523 8 21.6467 8H18.3569C18.1513 8 17.9786 8.144 17.9539 8.336L17.6414 10.456C17.1397 10.656 16.6791 10.928 16.2515 11.24L14.2036 10.44C14.0144 10.368 13.8006 10.44 13.7019 10.616L12.057 13.384C11.9501 13.56 11.9995 13.776 12.1557 13.896L13.8911 15.216C13.8582 15.472 13.8335 15.736 13.8335 16C13.8335 16.264 13.8582 16.528 13.8911 16.784L12.1557 18.104C11.9995 18.224 11.9583 18.44 12.057 18.616L13.7019 21.384C13.8006 21.56 14.0227 21.624 14.2036 21.56L16.2515 20.76C16.6791 21.08 17.1397 21.344 17.6414 21.544L17.9539 23.664C17.9786 23.856 18.1513 24 18.3569 24H21.6467C21.8523 24 22.025 23.856 22.0497 23.664L22.3622 21.544C22.8639 21.344 23.3245 21.072 23.7522 20.76L25.8 21.56C25.9892 21.632 26.203 21.56 26.3017 21.384ZM25.1207 16.6565L25.047 17.2299L26.8101 18.571L25.696 20.4458L23.6055 19.6291L23.1628 19.9521C22.787 20.2263 22.3996 20.4526 21.9919 20.6151L21.4569 20.8284L21.1368 23H18.8669L18.5467 20.8284L18.0117 20.6151C17.597 20.4498 17.2128 20.2304 16.8506 19.9593L16.4054 19.6263L14.3076 20.4458L13.1935 18.571L14.9566 17.2299L14.8829 16.6565C14.8527 16.4216 14.8335 16.2043 14.8335 16C14.8335 15.7957 14.8527 15.5784 14.8829 15.3435L14.9566 14.7701L13.1935 13.429L14.3076 11.5542L16.3981 12.3709L16.8408 12.0479C17.2166 11.7737 17.6041 11.5474 18.0117 11.3849L18.5467 11.1716L18.8669 9H21.1368L21.4569 11.1716L21.9919 11.3849C22.4066 11.5502 22.7908 11.7696 23.1531 12.0407L23.5982 12.3737L25.696 11.5542L26.8101 13.429L25.047 14.7701L25.1207 15.3435C25.151 15.5794 25.1701 15.7883 25.1701 16C25.1701 16.2117 25.151 16.4206 25.1207 16.6565Z" fill="#969696"/>
<path d="M38 14.8163L38.8955 14L40.9104 15.8367L41.7392 16.6522H42H42.2608L43.0896 15.8367L45.1045 14L46 14.8163L42.5075 18H41.4925L38 14.8163Z" fill="#969696"/>
</svg>
